<svg id="b143eb5c-1646-401d-af9e-18dec362a251" data-name="Layer 1" xmlns="http://www.w3.org/2000/svg" width="914.81679" height="687.57485" viewBox="0 0 914.81679 687.57485"><title>voting</title><path d="M1046.67161,746.01272s5.48616,19.75017,0,20.8474-32.36833-1.25692-38.95172-.15968-20.29879,1.25692-20.29879-3.68063,14.264-8.22923,14.264-8.22923,20.29879-10.97232,20.8474-11.52093S1046.67161,746.01272,1046.67161,746.01272Z" transform="translate(-142.59161 -106.21258)" fill="#2f2e41"/><path d="M1054.35223,567.71259s6.58339,15.90986-1.09723,24.13909-16.45847,24.68772-16.45847,25.78495,15.36124,110.27177,13.16677,117.40378-1.64584,11.52093-1.09723,12.61816-5.48616,7.132-12.06954,7.132-16.45848-4.93754-17.55571-9.32647,1.64585-42.24342,1.09723-49.37542-3.29169-17.55571-4.38893-19.75017-7.132-4.38893-8.22923-10.97232-9.87509-90.52161-7.132-93.26468S1054.35223,567.71259,1054.35223,567.71259Z" transform="translate(-142.59161 -106.21258)" fill="#575a89"/><circle cx="870.06582" cy="316.66544" r="18.65294" fill="#ffb9b9"/><path d="M1024.17836,432.20449s-3.84031,20.29878-1.09723,22.49324-20.8474,5.48616-20.8474,5.48616-2.74308-26.88217-3.29169-29.62525S1024.17836,432.20449,1024.17836,432.20449Z" transform="translate(-142.59161 -106.21258)" fill="#ffb9b9"/><path d="M998.942,458.538s6.58338-19.20155,33.46556-13.71539c0,0,4.93754,1.64585,3.29169,3.29169s-3.29169,1.64585-1.09723,3.2917,4.93754,0,3.2917,1.64585,14.81262,11.52093,13.71539,30.17387,3.84031,44.98649,0,49.37542,2.74308,23.59048,1.64585,27.43079,6.58339,8.77785,3.29169,10.4237-62.5422,11.52093-64.188,0-.54862-3.2917-2.19447-6.03478-2.19446-7.68062-1.09723-13.71539,3.84031-20.8474,2.74308-26.33356,0-51.56988,3.29169-57.056S998.942,458.538,998.942,458.538Z" transform="translate(-142.59161 -106.21258)" fill="#6c63ff"/><path d="M1010.463,592.4003s8.22923,31.2711-2.19447,31.2711-9.87508-32.36833-9.87508-32.36833Z" transform="translate(-142.59161 -106.21258)" fill="#ffb9b9"/><path d="M1004.42819,422.878c0,1.591,2.30416,2.60043,5.87566,2.83084h.00549a29.891,29.891,0,0,0,4.54255-.08776c2.2822-.20848,3.22587,1.93659,3.61543,4.76747.63635,4.66873-.25241,11.21371.7735,12.23962,1.41547,1.4154,11.7349-.00549,14.96076-3.21488a2.98113,2.98113,0,0,0,.9491-1.72267,9.16647,9.16647,0,0,1,2.75406-5.11859c1.90368-2.07924,4.61381-4.38344,7.66964-8.04818,5.48616-6.58339,0-7.132-1.64585-12.06955s-4.38893-6.58339-4.38893-9.87509-12.61816-6.03477-23.04186-5.48615-8.22924,13.71539-8.22924,13.71539-.61993,1.591-1.36055,3.64282a57.21447,57.21447,0,0,0-2.43582,7.911A3.98649,3.98649,0,0,0,1004.42819,422.878Z" transform="translate(-142.59161 -106.21258)" fill="#2f2e41"/><path d="M1006.62266,466.76728s18.65293-1.09723,20.29878,26.33356,1.09723,53.21573,1.09723,53.76435-7.68062,52.66712-14.81262,52.66712-12.61817-1.09724-14.264-3.84031,4.38892-42.24342,4.38892-42.24342,2.74308-41.6948-1.64585-54.86158S996.74757,468.41313,1006.62266,466.76728Z" transform="translate(-142.59161 -106.21258)" opacity="0.1"/><path d="M1003.87958,464.0242s18.65293-1.09723,20.29878,26.33356,1.09723,53.21573,1.09723,53.76435-7.68062,52.66712-14.81262,52.66712-12.61817-1.09723-14.264-3.84031,4.38892-42.24342,4.38892-42.24342,2.74308-41.6948-1.64584-54.86158S994.00449,465.67005,1003.87958,464.0242Z" transform="translate(-142.59161 -106.21258)" fill="#6c63ff"/></svg>