<?xml version="1.0" standalone="no"?>
<!DOCTYPE svg PUBLIC "-//W3C//DTD SVG 20010904//EN"
 "http://www.w3.org/TR/2001/REC-SVG-20010904/DTD/svg10.dtd">
<svg version="1.0" xmlns="http://www.w3.org/2000/svg"
 width="380.000000pt" height="380.000000pt" viewBox="0 0 380.000000 380.000000"
 preserveAspectRatio="xMidYMid meet">

<g transform="translate(0.000000,380.000000) scale(0.100000,-0.100000)"
fill="#000000" stroke="none">
<path d="M0 1900 l0 -1900 1900 0 1900 0 0 1900 0 1900 -1900 0 -1900 0 0
-1900z m1107 305 c20 -8 50 -31 68 -50 l33 -34 16 23 c42 66 187 96 271 57 59
-27 82 -57 193 -257 56 -99 118 -199 137 -221 48 -56 106 -83 179 -83 85 0
132 18 191 72 52 47 52 47 70 28 18 -20 18 -22 -21 -61 -21 -22 -61 -53 -89
-67 -43 -23 -62 -27 -140 -27 -78 0 -97 4 -140 27 -79 42 -118 91 -243 309
-131 228 -145 242 -237 242 -62 0 -110 -25 -137 -71 -16 -26 -18 -60 -18 -271
l0 -241 -35 0 -35 0 0 238 c0 211 -2 241 -18 272 -52 95 -228 95 -277 0 -12
-23 -15 -77 -15 -270 l0 -240 -35 0 -35 0 0 223 c0 256 8 302 63 356 19 18 52
39 73 46 52 19 136 19 181 0z m1048 -17 c75 -39 113 -87 220 -273 109 -192
130 -218 200 -251 92 -44 204 -29 280 38 30 26 52 38 74 38 17 0 31 -4 31 -8
0 -18 -92 -101 -137 -123 -40 -19 -64 -24 -138 -24 -78 0 -97 4 -141 27 -74
39 -128 106 -224 279 -99 179 -127 214 -195 245 -130 61 -296 -1 -350 -130
l-16 -39 -20 32 c-23 38 -18 51 44 118 70 76 139 104 247 99 57 -2 87 -9 125
-28z m670 0 c104 -54 170 -152 177 -264 l3 -49 -167 -3 -168 -2 0 30 0 30 135
0 c152 0 152 0 119 78 -53 127 -220 189 -350 128 -52 -24 -121 -94 -130 -133
-8 -31 -20 -29 -38 6 -13 25 -13 31 1 52 46 70 118 126 193 150 50 17 172 4
225 -23z m-1231 -342 c24 -41 26 -54 26 -155 l0 -111 -35 0 -35 0 0 161 c0 93
4 158 9 155 5 -3 21 -26 35 -50z"/>
</g>
</svg>
